<svg width="93" height="24" viewBox="0 0 93 24" fill="none" xmlns="http://www.w3.org/2000/svg">
<path d="M4.51521 13.4883C4.35359 13.3294 4.13426 13.3387 3.94435 13.5084C3.89946 13.5488 3.85844 13.5994 3.81767 13.6496L3.81758 13.6497C3.73482 13.7517 3.6531 13.8524 3.5419 13.8646C3.42536 13.8744 3.34984 13.7763 3.27248 13.6758L3.27235 13.6756L3.27231 13.6756C3.23019 13.6208 3.18754 13.5654 3.13738 13.5263C3.1318 13.5244 3.12873 13.52 3.12565 13.5157L3.1256 13.5156C3.12406 13.5134 3.12252 13.5112 3.12067 13.5093C2.91426 13.3331 2.68376 13.331 2.52197 13.501C2.36867 13.6626 2.3807 13.8848 2.55038 14.0804C2.59106 14.1276 2.64412 14.1704 2.69661 14.2127C2.79849 14.2948 2.89817 14.3751 2.90091 14.4828C2.89985 14.6004 2.79699 14.6822 2.69254 14.7653L2.69249 14.7653C2.63715 14.8093 2.58137 14.8537 2.54002 14.9039C2.38092 15.088 2.37308 15.3297 2.52627 15.4857C2.6683 15.6304 2.91288 15.6298 3.09138 15.4769C3.1962 15.3907 3.29826 15.296 3.37795 15.1899C3.48895 15.042 3.57018 15.0736 3.67591 15.1927C3.77051 15.3003 3.87638 15.4025 3.98517 15.4963C4.15253 15.6384 4.36915 15.6207 4.5196 15.4618C4.66722 15.3058 4.67463 15.109 4.53281 14.9419C4.43821 14.8342 4.33793 14.7321 4.22917 14.6383C4.10645 14.5304 4.09037 14.4459 4.22353 14.3318C4.33969 14.2345 4.44476 14.1202 4.54136 14.0086C4.68056 13.8497 4.6628 13.6387 4.51521 13.4883Z" fill="#F7CB05"/>
<path fill-rule="evenodd" clip-rule="evenodd" d="M3.68997 7.72448C4.57376 6.7596 5.61566 5.97716 6.81973 5.44607C8.29137 4.80147 9.81166 4.51364 11.3887 5.00418C12.2806 5.27986 13.0752 5.74203 13.7725 6.36636C14.0198 6.60555 14.2185 6.86906 14.2995 7.20961C14.4049 7.65556 14.7009 7.93529 15.086 8.13394C15.2194 8.20272 15.3503 8.27491 15.481 8.34696L15.4811 8.34702L15.4812 8.34705C15.7278 8.48306 15.9737 8.61861 16.2333 8.7299C16.5131 8.84747 16.5982 9.08665 16.4969 9.36638C16.3712 9.69477 16.132 9.93396 15.8685 10.1407C15.7225 10.2461 15.536 10.2867 15.3698 10.161C14.8185 9.73937 14.1658 9.62991 13.509 9.61369C11.6806 9.55288 10.1968 10.2988 9.00489 11.661C7.88191 12.9462 7.17244 14.4746 6.50757 16.0232C5.95162 17.3357 5.40174 18.6502 4.85222 19.9639L4.8519 19.9647C4.62413 20.5092 4.39641 21.0536 4.16835 21.5976C3.88051 22.2827 3.58861 22.4692 2.85077 22.3881C2.2913 22.3314 1.85752 22.0436 1.56157 21.5935C0.511555 19.9841 -0.0357506 18.2124 0.000736234 16.2786C0.0210067 14.9367 0.296686 13.6394 0.742637 12.3745C1.18048 11.1502 1.73589 9.98666 2.57104 8.98936C2.83861 8.66503 3.40212 8.03664 3.68997 7.72448ZM12.4428 9.2772C12.4657 9.30011 12.485 9.29785 12.5075 9.27718H12.5074C12.4845 9.2974 12.4618 9.29628 12.4428 9.2772ZM12.4478 9.27718C12.4461 9.27719 12.4444 9.2772 12.4428 9.2772L12.4478 9.27718ZM3.90889 17.803C3.94266 17.7905 3.97409 17.7773 4.00181 17.7592C3.97408 17.7773 3.94263 17.7905 3.90885 17.8029C3.76676 17.8261 3.70278 17.9327 3.64008 18.0372L3.64005 18.0372C3.62583 18.0609 3.61168 18.0845 3.59669 18.107C3.15479 18.8003 2.9683 19.5867 2.78992 20.3732C2.77727 20.4319 2.76299 20.4902 2.74875 20.5484C2.71277 20.6953 2.677 20.8414 2.66829 20.9895C2.66424 21.3097 2.48586 21.4881 2.24262 21.6503C2.21883 21.667 2.19867 21.6759 2.1812 21.6791C2.19868 21.6759 2.21885 21.6671 2.24266 21.6503C2.4859 21.4881 2.66428 21.3098 2.66833 20.9895C2.67704 20.8414 2.7128 20.6954 2.74878 20.5484C2.76303 20.4903 2.77731 20.4319 2.78996 20.3733C2.96834 19.5868 3.15483 18.8003 3.59673 18.107C3.61172 18.0845 3.62589 18.0609 3.64012 18.0372C3.70283 17.9327 3.7668 17.8261 3.90889 17.803ZM12.6211 9.26098L12.6211 9.26096C13.3549 9.20015 14.0765 9.24879 14.786 9.45555C15.1346 9.56096 15.2968 9.46366 15.4792 9.11907C15.502 9.07537 15.5188 9.03368 15.5285 8.99415C15.5189 9.03369 15.5021 9.07539 15.4793 9.11909C15.2969 9.46369 15.1347 9.56098 14.786 9.45557C14.0766 9.24882 13.3549 9.20017 12.6211 9.26098ZM12.5549 9.24869C12.5408 9.2537 12.5269 9.26263 12.5131 9.27304L12.513 9.27305C12.5268 9.26262 12.5407 9.25369 12.5549 9.24869ZM13.9712 7.32718C13.9925 7.41659 14.0194 7.50094 14.0515 7.58054C14.0193 7.50094 13.9925 7.41658 13.9711 7.32716C13.8981 7.04337 13.7117 6.81634 13.5008 6.61363L13.5009 6.61366C13.7117 6.81636 13.8982 7.04339 13.9712 7.32718ZM6.92225 7.88807C6.67438 7.63561 6.67206 7.27576 6.9188 7.03907C7.16275 6.79954 7.54225 6.80021 7.77338 7.04128C8.0045 7.28235 7.9981 7.67304 7.75702 7.90416C7.52165 8.12971 7.15344 8.12352 6.92225 7.88807ZM5.57502 14.4089C5.55929 15.2043 5.2079 15.8167 4.5517 16.2549C4.11695 16.4533 3.6717 16.5729 3.18609 16.4926C2.40296 16.3645 1.70063 15.7002 1.53624 14.9257C1.3666 14.1117 1.70611 13.2602 2.37647 12.8137C3.68315 11.9486 5.34878 12.7145 5.54251 14.2736C5.54599 14.3037 5.55448 14.3338 5.56297 14.3639C5.5672 14.3789 5.57141 14.3939 5.57502 14.4089ZM7.72037 8.83714C7.4809 8.58756 7.10986 8.58416 6.87152 8.82374C6.6134 9.07718 6.61023 9.42012 6.86096 9.6698C7.0977 9.91092 7.49124 9.91453 7.7155 9.67763C7.93969 9.44636 7.94319 9.06407 7.72037 8.83714ZM8.63653 8.5616C8.87761 8.33048 9.24865 8.33388 9.47424 8.56366C9.71098 8.80478 9.71305 9.19274 9.48601 9.4268C9.25335 9.6608 8.85705 9.65436 8.62593 9.41329C8.38362 9.1665 8.38696 8.80108 8.63653 8.5616Z" fill="#F7CB05"/>
<path d="M5.39281 0.0104348C4.60145 0.155027 4.17502 0.281324 3.62512 0.533963C1.65707 1.43811 0.34277 3.34616 0.148718 5.5809C0.0388932 6.8456 0.350984 8.19758 0.942908 9.02148C1.0854 9.21987 1.09941 9.26495 1.07454 9.44622C1.03462 9.73765 1.08727 9.94794 1.24154 10.1131C1.25222 10.1245 1.26202 10.1352 1.27097 10.1453C1.39536 9.92756 1.54922 9.6814 1.73349 9.42206C1.86227 9.24081 1.98036 9.08158 2.08644 8.94348L2.01022 8.9169C1.9348 8.89062 1.78542 8.87898 1.67829 8.89108C1.48911 8.91239 1.47921 8.90691 1.34078 8.70273C1.09996 8.34756 0.874285 7.80003 0.758711 7.29042C0.62233 6.68933 0.604125 5.65167 0.719288 5.04455C1.06336 3.23063 2.19461 1.76399 3.84682 0.989781C4.67208 0.603042 5.42653 0.459772 6.43617 0.4981C8.05357 0.559559 9.38165 1.18908 11.6894 2.98831C13.406 4.32665 14.1493 4.73 15.4211 5.01307C16.013 5.14479 17.6791 5.16067 18.1975 5.03948C19.4913 4.73707 20.3721 3.94721 20.6545 2.83646C20.7783 2.34943 20.729 2.12741 20.4971 2.12741C20.3309 2.12741 20.2217 2.23399 20.2217 2.39615C20.2217 2.81602 19.9017 3.44586 19.4943 3.82799C18.9042 4.38135 18.2754 4.59206 17.1191 4.62391C15.3426 4.67283 14.1836 4.26167 12.5335 2.99739C12.2825 2.80511 11.8514 2.47395 11.5753 2.26146C10.0072 1.05439 8.85794 0.437873 7.57718 0.116519C7.27503 0.0407314 7.01847 0.017415 6.35099 0.0051421C5.88673 -0.00343671 5.45555 -0.00101804 5.39281 0.0104348Z" fill="#F5CBFC"/>
<path d="M4.51566 13.4882C4.66328 13.6385 4.68102 13.8495 4.54182 14.0085C4.44522 14.12 4.34016 14.2343 4.22401 14.3317C4.09084 14.4457 4.10693 14.5302 4.22963 14.6381C4.33841 14.7319 4.43867 14.834 4.53327 14.9417C4.6751 15.1089 4.66768 15.3056 4.52007 15.4617C4.36962 15.6205 4.153 15.6382 3.98563 15.4961C3.87685 15.4023 3.77096 15.3002 3.67637 15.1925C3.57064 15.0734 3.48941 15.0418 3.37841 15.1898C3.29873 15.2958 3.19666 15.3905 3.09186 15.4767C2.91335 15.6297 2.66877 15.6302 2.52673 15.4856C2.37354 15.3295 2.38138 15.0878 2.54049 14.9038C2.65989 14.7587 2.89972 14.6625 2.90137 14.4826C2.89724 14.3195 2.67046 14.219 2.55085 14.0802C2.38116 13.8847 2.36914 13.6625 2.52243 13.5008C2.68422 13.3308 2.91472 13.3329 3.12113 13.5091C3.1267 13.5148 3.12944 13.5233 3.13784 13.5261C3.2802 13.6371 3.36231 13.8796 3.54236 13.8644C3.70839 13.8462 3.80875 13.6307 3.94481 13.5082C4.13472 13.3385 4.35407 13.3293 4.51566 13.4882V13.4882Z" fill="#F5CBFC"/>
<path fill-rule="evenodd" clip-rule="evenodd" d="M70.0165 2.80974C70.5553 2.26991 71.3972 2 72.559 2H76.4654C77.6104 2 78.4691 2.26991 79.0079 2.80974C79.5468 3.34957 79.8162 4.20992 79.8162 5.35705V10.3673C79.8162 11.5313 79.5468 12.3917 79.0079 12.9146C78.4691 13.4545 77.6104 13.7244 76.4654 13.7244H72.559C71.3972 13.7244 70.5553 13.4545 70.0165 12.9146C69.4777 12.3917 69.2083 11.5313 69.2083 10.3673V5.35705C69.2083 4.20992 69.4777 3.34957 70.0165 2.80974ZM72.4243 5.35705V10.3842C72.4243 10.8903 72.6432 11.0927 73.1483 11.0927H75.7919C76.2971 11.0927 76.5159 10.8903 76.5159 10.3842V5.35705C76.5159 4.86783 76.2971 4.64852 75.7919 4.64852H73.1483C72.6432 4.64852 72.4243 4.86783 72.4243 5.35705Z" fill="#F5CBFC"/>
<path fill-rule="evenodd" clip-rule="evenodd" d="M37.4687 2.80974C38.0075 2.26991 38.8662 2 40.0112 2H43.9344C45.0795 2 45.9381 2.26991 46.477 2.80974C47.0158 3.34957 47.2852 4.20992 47.2852 5.35705V10.3673C47.2852 11.5313 47.0158 12.3917 46.477 12.9146C45.9381 13.4545 45.0795 13.7244 43.9344 13.7244H40.0112C38.8662 13.7244 38.0075 13.4545 37.4687 12.9146C36.9467 12.3917 36.6605 11.5313 36.6605 10.3673V5.35705C36.6605 4.20992 36.9467 3.34957 37.4687 2.80974ZM39.9102 5.35705V10.3673C39.9102 10.8734 40.129 11.0927 40.6342 11.0927H43.2946C43.7998 11.0927 44.0018 10.8734 44.0018 10.3673V5.35705C44.0018 4.85096 43.7998 4.64852 43.2946 4.64852H40.6342C40.129 4.64852 39.9102 4.85096 39.9102 5.35705Z" fill="#F5CBFC"/>
<path d="M81.2643 2.96156C81.8031 2.43861 82.6618 2.15182 83.8068 2.15182H89.3128C89.4307 2.15182 89.5317 2.25304 89.5317 2.388V4.58105C89.5317 4.69914 89.4307 4.80035 89.3128 4.80035H84.4466C83.9415 4.80035 83.7226 5.01966 83.7226 5.50888V5.8294C83.7226 6.33549 83.9415 6.5548 84.4466 6.5548H87.2586C88.3362 6.5548 89.1444 6.80784 89.6664 7.31393C90.1884 7.83689 90.4578 8.62976 90.4578 9.69254V10.4685C90.4578 11.5313 90.1884 12.3411 89.6664 12.8472C89.1444 13.3701 88.3362 13.6232 87.2586 13.6232H83.0996C82.325 13.6232 81.5505 13.5557 80.7928 13.4207C80.6749 13.4039 80.6076 13.3026 80.6076 13.2014V11.1939C80.6076 11.0759 80.7086 10.9746 80.8265 10.9746H86.6356C86.8152 10.9746 86.9555 10.924 87.0565 10.8228C87.1463 10.7441 87.1912 10.6204 87.1912 10.4517V9.33829H83.8068C82.6618 9.33829 81.8031 9.06837 81.2643 8.52854C80.7423 7.98871 80.456 7.14524 80.456 5.98123V5.50888C80.456 4.36175 80.7423 3.50139 81.2643 2.96156Z" fill="#F5CBFC"/>
<path d="M64.7967 6.47045V2.388C64.7967 2.25304 64.8977 2.15182 65.0324 2.15182H67.8444C67.9623 2.15182 68.0633 2.25304 68.0633 2.388V13.3533C68.0633 13.4713 67.9623 13.5726 67.8444 13.5726H65.0324C64.8977 13.5726 64.7967 13.4713 64.7967 13.3533V9.10211H61.3281V13.3533C61.3281 13.4713 61.2439 13.5726 61.1092 13.5726H58.2972C58.1794 13.5726 58.0783 13.4713 58.0783 13.3533V2.388C58.0783 2.25304 58.1794 2.15182 58.2972 2.15182H61.1092C61.2439 2.15182 61.3281 2.25304 61.3281 2.388V6.47045H64.7967Z" fill="#F5CBFC"/>
<path d="M48.868 2.96156C49.4068 2.42173 50.2655 2.15182 51.4105 2.15182H57.0512C57.1691 2.15182 57.2701 2.25304 57.2701 2.388V4.58105C57.2701 4.69914 57.1691 4.80035 57.0512 4.80035H52.0504C51.5452 4.80035 51.3263 5.01966 51.3263 5.50888V10.5023C51.3263 10.6822 51.3769 10.8228 51.4779 10.924C51.5677 11.014 51.7024 11.059 51.882 11.059H54.2393C54.5087 11.059 54.7669 11.0196 55.0138 10.9409C55.0363 10.9297 55.0588 10.924 55.0812 10.924H57.0512C57.1691 10.924 57.2701 11.0252 57.2701 11.1433V13.2014C57.2701 13.3026 57.2028 13.4039 57.0849 13.4207C56.3777 13.5557 55.6705 13.6232 54.9633 13.6232H51.259C50.1813 13.6232 49.3731 13.3533 48.8512 12.8472C48.3292 12.3242 48.0597 11.5145 48.0597 10.4517V5.492C48.0597 4.34487 48.346 3.48451 48.868 2.96156Z" fill="#F5CBFC"/>
<path d="M32.131 2.26991C32.1647 2.20243 32.232 2.15182 32.3162 2.15182H35.2966C35.4144 2.15182 35.5155 2.25304 35.5155 2.388V13.3533C35.5155 13.4713 35.4144 13.5726 35.2966 13.5726H32.4846C32.3499 13.5726 32.2489 13.4713 32.2489 13.3533V8.08993L30.4809 11.2614C30.4472 11.3458 30.363 11.3795 30.2957 11.3795H28.0899C28.0226 11.3795 27.9384 11.3458 27.9047 11.2614L26.1367 8.08993V13.3533C26.1367 13.4713 26.0357 13.5726 25.901 13.5726H23.0891C22.9712 13.5726 22.8701 13.4713 22.8701 13.3533V2.388C22.8701 2.25304 22.9712 2.15182 23.0891 2.15182H26.0693C26.1367 2.15182 26.2209 2.20243 26.2546 2.26991L29.1844 7.7188L32.131 2.26991Z" fill="#F5CBFC"/>
<path d="M58.2888 20.9873C58.136 20.7994 58.0596 20.6321 58.0596 20.4853C58.0596 20.3326 58.186 20.133 58.4387 19.8864C58.5857 19.7455 58.7415 19.675 58.906 19.675C59.0706 19.675 59.2999 19.8218 59.5938 20.1154C59.6761 20.2152 59.7937 20.3121 59.9465 20.406C60.0993 20.4941 60.2404 20.5381 60.3697 20.5381C60.9164 20.5381 61.1898 20.315 61.1898 19.8688C61.1898 19.7338 61.1134 19.6222 60.9605 19.5341C60.8136 19.4402 60.6284 19.3727 60.405 19.3316C60.1816 19.2905 59.9406 19.2259 59.682 19.1378C59.4233 19.0439 59.1823 18.9353 58.959 18.812C58.7356 18.6887 58.5475 18.4949 58.3946 18.2307C58.2477 17.9606 58.1742 17.6377 58.1742 17.262C58.1742 16.7453 58.3652 16.2961 58.7473 15.9145C59.1353 15.527 59.6614 15.3333 60.3257 15.3333C60.6784 15.3333 60.9987 15.3802 61.2868 15.4742C61.5807 15.5622 61.7835 15.6532 61.8952 15.7472L62.1156 15.9145C62.2978 16.0848 62.3889 16.2286 62.3889 16.346C62.3889 16.4635 62.3184 16.6249 62.1773 16.8304C61.9775 17.124 61.7717 17.2708 61.5601 17.2708C61.4367 17.2708 61.2838 17.2121 61.1016 17.0946C61.084 17.0829 61.0487 17.0535 60.9958 17.0066C60.9488 16.9596 60.9047 16.9214 60.8635 16.8921C60.7401 16.8157 60.5814 16.7776 60.3874 16.7776C60.1993 16.7776 60.0406 16.8246 59.9112 16.9185C59.7878 17.0066 59.7261 17.1328 59.7261 17.2972C59.7261 17.4557 59.7995 17.5849 59.9465 17.6847C60.0993 17.7845 60.2874 17.852 60.5108 17.8872C60.7342 17.9225 60.9781 17.9783 61.2427 18.0546C61.5072 18.125 61.7511 18.2131 61.9745 18.3188C62.1979 18.4245 62.3831 18.6094 62.53 18.8736C62.6829 19.132 62.7593 19.4519 62.7593 19.8336C62.7593 20.2152 62.6829 20.5528 62.53 20.8464C62.3772 21.1341 62.1773 21.3572 61.9304 21.5157C61.4543 21.8269 60.9458 21.9824 60.405 21.9824C60.1287 21.9824 59.8671 21.9502 59.6203 21.8856C59.3734 21.8151 59.1735 21.73 59.0207 21.6302C58.7091 21.4423 58.4916 21.2603 58.3682 21.0841L58.2888 20.9873Z" fill="#F5CBFC"/>
<path d="M63.3166 15.4301H68.2191C68.4072 15.4301 68.5453 15.4536 68.6335 15.5006C68.7217 15.5417 68.7805 15.6092 68.8098 15.7031C68.8392 15.7971 68.8539 15.9204 68.8539 16.073C68.8539 16.2257 68.8392 16.349 68.8098 16.4429C68.7805 16.531 68.7305 16.5926 68.6599 16.6279C68.5541 16.6807 68.4042 16.7071 68.2103 16.7071H66.5261V21.137C66.5261 21.272 66.5202 21.3718 66.5085 21.4364C66.5026 21.501 66.4762 21.5773 66.4291 21.6654C66.388 21.7476 66.3116 21.8063 66.1999 21.8415C66.0882 21.8768 65.9412 21.8944 65.759 21.8944C65.5768 21.8944 65.4298 21.8768 65.3181 21.8415C65.2123 21.8063 65.1359 21.7476 65.0889 21.6654C65.0477 21.5773 65.0213 21.501 65.0095 21.4364C65.0036 21.366 65.0007 21.2632 65.0007 21.1282V16.7071H63.3077C63.1196 16.7071 62.9815 16.6866 62.8933 16.6455C62.8052 16.5985 62.7464 16.5281 62.717 16.4341C62.6876 16.3402 62.6729 16.2169 62.6729 16.0642C62.6729 15.9116 62.6876 15.7912 62.717 15.7031C62.7464 15.6092 62.7963 15.5446 62.8669 15.5094C62.9727 15.4565 63.1226 15.4301 63.3166 15.4301Z" fill="#F5CBFC"/>
<path d="M73.5664 15.6767C73.6252 15.5828 73.7104 15.5182 73.8221 15.483C73.9338 15.4477 74.0719 15.4301 74.2365 15.4301C74.407 15.4301 74.5422 15.4448 74.6421 15.4742C74.742 15.5035 74.8185 15.5387 74.8714 15.5798C74.9243 15.6209 74.9625 15.6826 74.986 15.7648C75.0213 15.8646 75.0389 16.0173 75.0389 16.2227V18.8824C75.0389 19.6574 74.7979 20.362 74.3159 20.9961C74.0807 21.2955 73.778 21.5392 73.4077 21.727C73.0373 21.9091 72.6258 22.0001 72.1732 22.0001C71.7265 22.0001 71.3179 21.9061 70.9476 21.7182C70.5831 21.5304 70.2863 21.2838 70.057 20.9785C69.5809 20.3561 69.3428 19.6516 69.3428 18.8648V16.2139C69.3428 16.073 69.3458 15.9703 69.3516 15.9057C69.3634 15.8352 69.3928 15.756 69.4398 15.6679C69.4868 15.5798 69.5662 15.5182 69.6779 15.483C69.7896 15.4477 69.9395 15.4301 70.1276 15.4301C70.3157 15.4301 70.4656 15.4477 70.5773 15.483C70.6889 15.5182 70.7654 15.5798 70.8065 15.6679C70.8771 15.803 70.9123 15.9879 70.9123 16.2227V18.8648C70.9123 19.223 71.0005 19.5635 71.1768 19.8864C71.265 20.0508 71.3973 20.1829 71.5736 20.2827C71.75 20.3825 71.9587 20.4324 72.1997 20.4324C72.6288 20.4324 72.9492 20.2739 73.1608 19.9569C73.3724 19.6398 73.4782 19.2729 73.4782 18.856V16.1611C73.4782 15.9321 73.5076 15.7707 73.5664 15.6767Z" fill="#F5CBFC"/>
<path d="M76.5254 15.4301L78.1566 15.4389C79.009 15.4389 79.7585 15.7472 80.4051 16.3637C81.0517 16.9743 81.375 17.7287 81.375 18.627C81.375 19.5195 81.0576 20.2857 80.4227 20.9256C79.7937 21.5656 79.0296 21.8856 78.1302 21.8856H76.5166C76.158 21.8856 75.9346 21.8122 75.8464 21.6654C75.7759 21.5421 75.7406 21.3542 75.7406 21.1018V16.2051C75.7406 16.0642 75.7436 15.9615 75.7495 15.8969C75.7612 15.8323 75.7906 15.756 75.8376 15.6679C75.9199 15.5094 76.1492 15.4301 76.5254 15.4301ZM78.1566 20.3268C78.5799 20.3268 78.962 20.1712 79.3029 19.86C79.6438 19.5429 79.8143 19.1466 79.8143 18.6711C79.8143 18.1955 79.6468 17.7992 79.3117 17.4821C78.9825 17.1592 78.5946 16.9978 78.1478 16.9978H77.3013V20.3268H78.1566Z" fill="#F5CBFC"/>
<path d="M81.949 16.2139C81.949 16.0789 81.952 15.9791 81.9578 15.9145C81.9696 15.8441 81.999 15.7648 82.046 15.6767C82.1283 15.5182 82.3576 15.4389 82.7338 15.4389C83.1453 15.4389 83.3892 15.5476 83.4656 15.7648C83.495 15.8646 83.5097 16.0173 83.5097 16.2227V21.1194C83.5097 21.2603 83.5038 21.363 83.4921 21.4276C83.4862 21.4922 83.4598 21.5685 83.4127 21.6566C83.3304 21.8151 83.1012 21.8944 82.725 21.8944C82.3135 21.8944 82.0725 21.7828 82.0019 21.5597C81.9667 21.4658 81.949 21.3161 81.949 21.1106V16.2139Z" fill="#F5CBFC"/>
<path d="M87.2469 15.3597C88.1169 15.3597 88.8722 15.6738 89.513 16.302C90.1537 16.9302 90.4741 17.7111 90.4741 18.6446C90.4741 19.5723 90.1684 20.3649 89.557 21.0225C88.9457 21.6742 88.1933 22.0001 87.2998 22.0001C86.4063 22.0001 85.645 21.6771 85.0161 21.0313C84.393 20.3855 84.0814 19.6163 84.0814 18.7239C84.0814 18.2366 84.1696 17.7816 84.3459 17.3588C84.5223 16.9302 84.7574 16.5721 85.0513 16.2844C85.3452 15.9967 85.6832 15.7707 86.0653 15.6063C86.4474 15.4419 86.8413 15.3597 87.2469 15.3597ZM85.6421 18.6799C85.6421 19.2024 85.8096 19.6281 86.1447 19.9569C86.4856 20.2798 86.8648 20.4412 87.2821 20.4412C87.6995 20.4412 88.0757 20.2827 88.4108 19.9657C88.7458 19.6486 88.9134 19.223 88.9134 18.6887C88.9134 18.1544 88.7429 17.7258 88.402 17.4029C88.0669 17.08 87.6907 16.9185 87.2733 16.9185C86.856 16.9185 86.4798 17.0829 86.1447 17.4117C85.8096 17.7346 85.6421 18.1573 85.6421 18.6799Z" fill="#F5CBFC"/>
</svg>
