<svg width="94" height="24" viewBox="0 0 94 24" fill="none" xmlns="http://www.w3.org/2000/svg">
<g clip-path="url(#clip0_51_35)">
<path fill-rule="evenodd" clip-rule="evenodd" d="M71.0165 2.80974C71.5553 2.26991 72.3972 2 73.559 2H77.4654C78.6104 2 79.4691 2.26991 80.0079 2.80974C80.5468 3.34957 80.8162 4.20992 80.8162 5.35705V10.3673C80.8162 11.5313 80.5468 12.3917 80.0079 12.9146C79.4691 13.4545 78.6104 13.7244 77.4654 13.7244H73.559C72.3972 13.7244 71.5553 13.4545 71.0165 12.9146C70.4777 12.3917 70.2083 11.5313 70.2083 10.3673V5.35705C70.2083 4.20992 70.4777 3.34957 71.0165 2.80974ZM73.4243 5.35705V10.3842C73.4243 10.8903 73.6432 11.0927 74.1483 11.0927H76.7919C77.2971 11.0927 77.5159 10.8903 77.5159 10.3842V5.35705C77.5159 4.86783 77.2971 4.64852 76.7919 4.64852H74.1483C73.6432 4.64852 73.4243 4.86783 73.4243 5.35705Z" fill="#0C0030"/>
<path fill-rule="evenodd" clip-rule="evenodd" d="M38.4687 2.80974C39.0075 2.26991 39.8662 2 41.0112 2H44.9344C46.0795 2 46.9381 2.26991 47.477 2.80974C48.0158 3.34957 48.2852 4.20992 48.2852 5.35705V10.3673C48.2852 11.5313 48.0158 12.3917 47.477 12.9146C46.9381 13.4545 46.0795 13.7244 44.9344 13.7244H41.0112C39.8662 13.7244 39.0075 13.4545 38.4687 12.9146C37.9467 12.3917 37.6605 11.5313 37.6605 10.3673V5.35705C37.6605 4.20992 37.9467 3.34957 38.4687 2.80974ZM40.9102 5.35705V10.3673C40.9102 10.8734 41.129 11.0927 41.6342 11.0927H44.2946C44.7998 11.0927 45.0018 10.8734 45.0018 10.3673V5.35705C45.0018 4.85096 44.7998 4.64852 44.2946 4.64852H41.6342C41.129 4.64852 40.9102 4.85096 40.9102 5.35705Z" fill="#0C0030"/>
<path d="M82.2643 2.96156C82.8031 2.43861 83.6618 2.15182 84.8068 2.15182H90.3128C90.4307 2.15182 90.5317 2.25304 90.5317 2.388V4.58105C90.5317 4.69914 90.4307 4.80035 90.3128 4.80035H85.4466C84.9415 4.80035 84.7226 5.01966 84.7226 5.50888V5.8294C84.7226 6.33549 84.9415 6.5548 85.4466 6.5548H88.2586C89.3362 6.5548 90.1444 6.80784 90.6664 7.31393C91.1884 7.83689 91.4578 8.62976 91.4578 9.69254V10.4685C91.4578 11.5313 91.1884 12.3411 90.6664 12.8472C90.1444 13.3701 89.3362 13.6232 88.2586 13.6232H84.0996C83.325 13.6232 82.5505 13.5557 81.7928 13.4207C81.6749 13.4039 81.6076 13.3026 81.6076 13.2014V11.1939C81.6076 11.0759 81.7086 10.9746 81.8265 10.9746H87.6356C87.8152 10.9746 87.9555 10.924 88.0565 10.8228C88.1463 10.7441 88.1912 10.6204 88.1912 10.4517V9.33829H84.8068C83.6618 9.33829 82.8031 9.06837 82.2643 8.52854C81.7423 7.98871 81.456 7.14524 81.456 5.98123V5.50888C81.456 4.36175 81.7423 3.50139 82.2643 2.96156Z" fill="#0C0030"/>
<path d="M65.7967 6.47045V2.388C65.7967 2.25304 65.8977 2.15182 66.0324 2.15182H68.8444C68.9623 2.15182 69.0633 2.25304 69.0633 2.388V13.3533C69.0633 13.4713 68.9623 13.5726 68.8444 13.5726H66.0324C65.8977 13.5726 65.7967 13.4713 65.7967 13.3533V9.10211H62.3281V13.3533C62.3281 13.4713 62.2439 13.5726 62.1092 13.5726H59.2972C59.1794 13.5726 59.0783 13.4713 59.0783 13.3533V2.388C59.0783 2.25304 59.1794 2.15182 59.2972 2.15182H62.1092C62.2439 2.15182 62.3281 2.25304 62.3281 2.388V6.47045H65.7967Z" fill="#0C0030"/>
<path d="M49.868 2.96156C50.4068 2.42173 51.2655 2.15182 52.4105 2.15182H58.0512C58.1691 2.15182 58.2701 2.25304 58.2701 2.388V4.58105C58.2701 4.69914 58.1691 4.80035 58.0512 4.80035H53.0504C52.5452 4.80035 52.3263 5.01966 52.3263 5.50888V10.5023C52.3263 10.6822 52.3769 10.8228 52.4779 10.924C52.5677 11.014 52.7024 11.059 52.882 11.059H55.2393C55.5087 11.059 55.7669 11.0196 56.0138 10.9409C56.0363 10.9297 56.0588 10.924 56.0812 10.924H58.0512C58.1691 10.924 58.2701 11.0252 58.2701 11.1433V13.2014C58.2701 13.3026 58.2028 13.4039 58.0849 13.4207C57.3777 13.5557 56.6705 13.6232 55.9633 13.6232H52.259C51.1813 13.6232 50.3731 13.3533 49.8512 12.8472C49.3292 12.3242 49.0597 11.5145 49.0597 10.4517V5.492C49.0597 4.34487 49.346 3.48451 49.868 2.96156Z" fill="#0C0030"/>
<path d="M33.131 2.26991C33.1647 2.20243 33.232 2.15182 33.3162 2.15182H36.2966C36.4144 2.15182 36.5155 2.25304 36.5155 2.388V13.3533C36.5155 13.4713 36.4144 13.5726 36.2966 13.5726H33.4846C33.3499 13.5726 33.2489 13.4713 33.2489 13.3533V8.08993L31.4809 11.2614C31.4472 11.3458 31.363 11.3795 31.2957 11.3795H29.0899C29.0226 11.3795 28.9384 11.3458 28.9047 11.2614L27.1367 8.08993V13.3533C27.1367 13.4713 27.0357 13.5726 26.901 13.5726H24.0891C23.9712 13.5726 23.8701 13.4713 23.8701 13.3533V2.388C23.8701 2.25304 23.9712 2.15182 24.0891 2.15182H27.0693C27.1367 2.15182 27.2209 2.20243 27.2546 2.26991L30.1844 7.7188L33.131 2.26991Z" fill="#0C0030"/>
<path d="M59.2888 20.9873C59.136 20.7994 59.0596 20.6321 59.0596 20.4853C59.0596 20.3326 59.186 20.133 59.4387 19.8864C59.5857 19.7455 59.7415 19.675 59.906 19.675C60.0706 19.675 60.2999 19.8218 60.5938 20.1154C60.6761 20.2152 60.7937 20.3121 60.9465 20.406C61.0993 20.4941 61.2404 20.5381 61.3697 20.5381C61.9164 20.5381 62.1898 20.315 62.1898 19.8688C62.1898 19.7338 62.1134 19.6222 61.9605 19.5341C61.8136 19.4402 61.6284 19.3727 61.405 19.3316C61.1816 19.2905 60.9406 19.2259 60.682 19.1378C60.4233 19.0439 60.1823 18.9353 59.959 18.812C59.7356 18.6887 59.5475 18.4949 59.3946 18.2307C59.2477 17.9606 59.1742 17.6377 59.1742 17.262C59.1742 16.7453 59.3652 16.2961 59.7473 15.9145C60.1353 15.527 60.6614 15.3333 61.3257 15.3333C61.6784 15.3333 61.9987 15.3802 62.2868 15.4742C62.5807 15.5622 62.7835 15.6532 62.8952 15.7472L63.1156 15.9145C63.2978 16.0848 63.3889 16.2286 63.3889 16.346C63.3889 16.4635 63.3184 16.6249 63.1773 16.8304C62.9775 17.124 62.7717 17.2708 62.5601 17.2708C62.4367 17.2708 62.2838 17.2121 62.1016 17.0946C62.084 17.0829 62.0487 17.0535 61.9958 17.0066C61.9488 16.9596 61.9047 16.9214 61.8635 16.8921C61.7401 16.8157 61.5814 16.7776 61.3874 16.7776C61.1993 16.7776 61.0406 16.8246 60.9112 16.9185C60.7878 17.0066 60.7261 17.1328 60.7261 17.2972C60.7261 17.4557 60.7995 17.5849 60.9465 17.6847C61.0993 17.7845 61.2874 17.852 61.5108 17.8872C61.7342 17.9225 61.9781 17.9783 62.2427 18.0546C62.5072 18.125 62.7511 18.2131 62.9745 18.3188C63.1979 18.4245 63.3831 18.6094 63.53 18.8736C63.6829 19.132 63.7593 19.4519 63.7593 19.8336C63.7593 20.2152 63.6829 20.5528 63.53 20.8464C63.3772 21.1341 63.1773 21.3572 62.9304 21.5157C62.4543 21.8269 61.9458 21.9824 61.405 21.9824C61.1287 21.9824 60.8671 21.9502 60.6203 21.8856C60.3734 21.8151 60.1735 21.73 60.0207 21.6302C59.7091 21.4423 59.4916 21.2603 59.3682 21.0841L59.2888 20.9873Z" fill="#0C0030"/>
<path d="M64.3166 15.4301H69.2191C69.4072 15.4301 69.5453 15.4536 69.6335 15.5006C69.7217 15.5417 69.7805 15.6092 69.8098 15.7031C69.8392 15.7971 69.8539 15.9204 69.8539 16.073C69.8539 16.2257 69.8392 16.349 69.8098 16.4429C69.7805 16.531 69.7305 16.5926 69.6599 16.6279C69.5541 16.6807 69.4042 16.7071 69.2103 16.7071H67.5261V21.137C67.5261 21.272 67.5202 21.3718 67.5085 21.4364C67.5026 21.501 67.4762 21.5773 67.4291 21.6654C67.388 21.7476 67.3116 21.8063 67.1999 21.8415C67.0882 21.8768 66.9412 21.8944 66.759 21.8944C66.5768 21.8944 66.4298 21.8768 66.3181 21.8415C66.2123 21.8063 66.1359 21.7476 66.0889 21.6654C66.0477 21.5773 66.0213 21.501 66.0095 21.4364C66.0036 21.366 66.0007 21.2632 66.0007 21.1282V16.7071H64.3077C64.1196 16.7071 63.9815 16.6866 63.8933 16.6455C63.8052 16.5985 63.7464 16.5281 63.717 16.4341C63.6876 16.3402 63.6729 16.2169 63.6729 16.0642C63.6729 15.9116 63.6876 15.7912 63.717 15.7031C63.7464 15.6092 63.7963 15.5446 63.8669 15.5094C63.9727 15.4565 64.1226 15.4301 64.3166 15.4301Z" fill="#0C0030"/>
<path d="M74.5664 15.6767C74.6252 15.5828 74.7104 15.5182 74.8221 15.483C74.9338 15.4477 75.0719 15.4301 75.2365 15.4301C75.407 15.4301 75.5422 15.4448 75.6421 15.4742C75.742 15.5035 75.8185 15.5387 75.8714 15.5798C75.9243 15.6209 75.9625 15.6826 75.986 15.7648C76.0213 15.8646 76.0389 16.0173 76.0389 16.2227V18.8824C76.0389 19.6574 75.7979 20.362 75.3159 20.9961C75.0807 21.2955 74.778 21.5392 74.4077 21.727C74.0373 21.9091 73.6258 22.0001 73.1732 22.0001C72.7265 22.0001 72.3179 21.9061 71.9476 21.7182C71.5831 21.5304 71.2863 21.2838 71.057 20.9785C70.5809 20.3561 70.3428 19.6516 70.3428 18.8648V16.2139C70.3428 16.073 70.3458 15.9703 70.3516 15.9057C70.3634 15.8352 70.3928 15.756 70.4398 15.6679C70.4868 15.5798 70.5662 15.5182 70.6779 15.483C70.7896 15.4477 70.9395 15.4301 71.1276 15.4301C71.3157 15.4301 71.4656 15.4477 71.5773 15.483C71.6889 15.5182 71.7654 15.5798 71.8065 15.6679C71.8771 15.803 71.9123 15.9879 71.9123 16.2227V18.8648C71.9123 19.223 72.0005 19.5635 72.1768 19.8864C72.265 20.0508 72.3973 20.1829 72.5736 20.2827C72.75 20.3825 72.9587 20.4324 73.1997 20.4324C73.6288 20.4324 73.9492 20.2739 74.1608 19.9569C74.3724 19.6398 74.4782 19.2729 74.4782 18.856V16.1611C74.4782 15.9321 74.5076 15.7707 74.5664 15.6767Z" fill="#0C0030"/>
<path d="M77.5254 15.4301L79.1566 15.4389C80.009 15.4389 80.7585 15.7472 81.4051 16.3637C82.0517 16.9743 82.375 17.7287 82.375 18.627C82.375 19.5195 82.0576 20.2857 81.4227 20.9256C80.7937 21.5656 80.0296 21.8856 79.1302 21.8856H77.5166C77.158 21.8856 76.9346 21.8122 76.8464 21.6654C76.7759 21.5421 76.7406 21.3542 76.7406 21.1018V16.2051C76.7406 16.0642 76.7436 15.9615 76.7495 15.8969C76.7612 15.8323 76.7906 15.756 76.8376 15.6679C76.9199 15.5094 77.1492 15.4301 77.5254 15.4301ZM79.1566 20.3268C79.5799 20.3268 79.962 20.1712 80.3029 19.86C80.6438 19.5429 80.8143 19.1466 80.8143 18.6711C80.8143 18.1955 80.6468 17.7992 80.3117 17.4821C79.9825 17.1592 79.5946 16.9978 79.1478 16.9978H78.3013V20.3268H79.1566Z" fill="#0C0030"/>
<path d="M82.949 16.2139C82.949 16.0789 82.952 15.9791 82.9578 15.9145C82.9696 15.8441 82.999 15.7648 83.046 15.6767C83.1283 15.5182 83.3576 15.4389 83.7338 15.4389C84.1453 15.4389 84.3892 15.5476 84.4656 15.7648C84.495 15.8646 84.5097 16.0173 84.5097 16.2227V21.1194C84.5097 21.2603 84.5038 21.363 84.4921 21.4276C84.4862 21.4922 84.4598 21.5685 84.4127 21.6566C84.3304 21.8151 84.1012 21.8944 83.725 21.8944C83.3135 21.8944 83.0725 21.7828 83.0019 21.5597C82.9667 21.4658 82.949 21.3161 82.949 21.1106V16.2139Z" fill="#0C0030"/>
<path d="M88.2469 15.3597C89.1169 15.3597 89.8722 15.6738 90.513 16.302C91.1537 16.9302 91.4741 17.7111 91.4741 18.6446C91.4741 19.5723 91.1684 20.3649 90.557 21.0225C89.9457 21.6742 89.1933 22.0001 88.2998 22.0001C87.4063 22.0001 86.645 21.6771 86.0161 21.0313C85.393 20.3855 85.0814 19.6163 85.0814 18.7239C85.0814 18.2366 85.1696 17.7816 85.3459 17.3588C85.5223 16.9302 85.7574 16.5721 86.0513 16.2844C86.3452 15.9967 86.6832 15.7707 87.0653 15.6063C87.4474 15.4419 87.8413 15.3597 88.2469 15.3597ZM86.6421 18.6799C86.6421 19.2024 86.8096 19.6281 87.1447 19.9569C87.4856 20.2798 87.8648 20.4412 88.2821 20.4412C88.6995 20.4412 89.0757 20.2827 89.4108 19.9657C89.7458 19.6486 89.9134 19.223 89.9134 18.6887C89.9134 18.1544 89.7429 17.7258 89.402 17.4029C89.0669 17.08 88.6907 16.9185 88.2733 16.9185C87.856 16.9185 87.4798 17.0829 87.1447 17.4117C86.8096 17.7346 86.6421 18.1573 86.6421 18.6799Z" fill="#0C0030"/>
<path d="M5.38728 13.4883C5.22566 13.3294 5.00633 13.3387 4.81642 13.5084C4.77153 13.5488 4.73051 13.5994 4.68974 13.6496L4.68965 13.6497C4.60689 13.7517 4.52517 13.8524 4.41397 13.8646C4.29743 13.8744 4.22191 13.7763 4.14455 13.6758L4.14442 13.6756L4.14438 13.6756C4.10226 13.6208 4.05961 13.5654 4.00945 13.5263C4.00387 13.5244 4.0008 13.52 3.99772 13.5157L3.99767 13.5156C3.99613 13.5134 3.99459 13.5112 3.99274 13.5093C3.78633 13.3331 3.55583 13.331 3.39404 13.501C3.24074 13.6626 3.25277 13.8848 3.42245 14.0804C3.46313 14.1276 3.51619 14.1704 3.56868 14.2127C3.67056 14.2948 3.77024 14.3751 3.77298 14.4828C3.77192 14.6004 3.66906 14.6822 3.56461 14.7653L3.56456 14.7653C3.50922 14.8093 3.45344 14.8537 3.41209 14.9039C3.25299 15.088 3.24515 15.3297 3.39834 15.4857C3.54037 15.6304 3.78495 15.6298 3.96345 15.4769C4.06827 15.3907 4.17033 15.296 4.25002 15.1899C4.36102 15.042 4.44225 15.0736 4.54798 15.1927C4.64258 15.3003 4.74845 15.4025 4.85724 15.4963C5.0246 15.6384 5.24122 15.6207 5.39167 15.4618C5.53929 15.3058 5.54671 15.109 5.40488 14.9419C5.31028 14.8342 5.21 14.7321 5.10124 14.6383C4.97852 14.5304 4.96244 14.4459 5.0956 14.3318C5.21176 14.2345 5.31683 14.1202 5.41343 14.0086C5.55263 13.8497 5.53487 13.6387 5.38728 13.4883Z" fill="#D2B206"/>
<path fill-rule="evenodd" clip-rule="evenodd" d="M4.56204 7.72448C5.44583 6.7596 6.48773 5.97716 7.6918 5.44607C9.16344 4.80147 10.6837 4.51364 12.2608 5.00418C13.1527 5.27986 13.9473 5.74203 14.6446 6.36636C14.8919 6.60555 15.0905 6.86906 15.1716 7.20961C15.277 7.65556 15.573 7.93529 15.9581 8.13394C16.0915 8.20272 16.2224 8.27491 16.3531 8.34696L16.3532 8.34702L16.3532 8.34705C16.5999 8.48306 16.8457 8.61861 17.1054 8.7299C17.3851 8.84747 17.4703 9.08665 17.3689 9.36638C17.2433 9.69477 17.0041 9.93396 16.7405 10.1407C16.5946 10.2461 16.4081 10.2867 16.2419 10.161C15.6905 9.73937 15.0378 9.62991 14.3811 9.61369C12.5527 9.55288 11.0689 10.2988 9.87696 11.661C8.75398 12.9462 8.04451 14.4746 7.37964 16.0232C6.82369 17.3357 6.27381 18.6502 5.72429 19.9639L5.72397 19.9647C5.4962 20.5092 5.26848 21.0536 5.04042 21.5976C4.75258 22.2827 4.46068 22.4692 3.72284 22.3881C3.16337 22.3314 2.72959 22.0436 2.43364 21.5935C1.38363 19.9841 0.83632 18.2124 0.872807 16.2786C0.893077 14.9367 1.16876 13.6394 1.61471 12.3745C2.05255 11.1502 2.60796 9.98666 3.44311 8.98936C3.71068 8.66503 4.27419 8.03664 4.56204 7.72448ZM13.3148 9.2772C13.3377 9.30011 13.3571 9.29785 13.3796 9.27718H13.3795C13.3566 9.2974 13.3339 9.29628 13.3148 9.2772ZM13.3199 9.27718C13.3182 9.27719 13.3165 9.2772 13.3148 9.2772L13.3199 9.27718ZM4.78096 17.803C4.81473 17.7905 4.84616 17.7773 4.87388 17.7592C4.84615 17.7773 4.8147 17.7905 4.78092 17.8029C4.63883 17.8261 4.57486 17.9327 4.51215 18.0372L4.51212 18.0372C4.4979 18.0609 4.48375 18.0845 4.46876 18.107C4.02686 18.8003 3.84037 19.5867 3.66199 20.3732C3.64934 20.4319 3.63506 20.4902 3.62082 20.5484C3.58484 20.6953 3.54908 20.8414 3.54036 20.9895C3.53631 21.3097 3.35793 21.4881 3.11469 21.6503C3.0909 21.667 3.07075 21.6759 3.05327 21.6791C3.07075 21.6759 3.09092 21.6671 3.11473 21.6503C3.35798 21.4881 3.53635 21.3098 3.5404 20.9895C3.54912 20.8414 3.58487 20.6954 3.62085 20.5484C3.6351 20.4903 3.64938 20.4319 3.66203 20.3733C3.84041 19.5868 4.0269 18.8003 4.4688 18.107C4.48379 18.0845 4.49796 18.0609 4.51219 18.0372C4.5749 17.9327 4.63887 17.8261 4.78096 17.803ZM13.4932 9.26098L13.4932 9.26096C14.227 9.20015 14.9486 9.24879 15.6581 9.45555C16.0067 9.56096 16.1689 9.46366 16.3513 9.11907C16.3741 9.07537 16.3909 9.03368 16.4006 8.99415C16.3909 9.03369 16.3742 9.07539 16.3514 9.11909C16.1689 9.46369 16.0068 9.56098 15.6581 9.45557C14.9486 9.24882 14.227 9.20017 13.4932 9.26098ZM13.4269 9.24869C13.4128 9.2537 13.399 9.26263 13.3851 9.27304L13.3851 9.27305C13.3989 9.26262 13.4128 9.25369 13.4269 9.24869ZM14.8432 7.32718C14.8646 7.41659 14.8914 7.50094 14.9236 7.58054C14.8914 7.50094 14.8645 7.41658 14.8432 7.32716C14.7702 7.04337 14.5837 6.81634 14.3729 6.61363L14.373 6.61366C14.5838 6.81636 14.7703 7.04339 14.8432 7.32718ZM7.79432 7.88807C7.54645 7.63561 7.54413 7.27576 7.79087 7.03907C8.03482 6.79954 8.41432 6.80021 8.64545 7.04128C8.87657 7.28235 8.87018 7.67304 8.62909 7.90416C8.39372 8.12971 8.02551 8.12352 7.79432 7.88807ZM6.44709 14.4089C6.43136 15.2043 6.07998 15.8167 5.42377 16.2549C4.98902 16.4533 4.54377 16.5729 4.05816 16.4926C3.27503 16.3645 2.5727 15.7002 2.40831 14.9257C2.23867 14.1117 2.57818 13.2602 3.24854 12.8137C4.55522 11.9486 6.22085 12.7145 6.41458 14.2736C6.41806 14.3037 6.42655 14.3338 6.43504 14.3639C6.43927 14.3789 6.44348 14.3939 6.44709 14.4089ZM8.59245 8.83714C8.35297 8.58756 7.98193 8.58416 7.74359 8.82374C7.48547 9.07718 7.4823 9.42012 7.73303 9.6698C7.96977 9.91092 8.36331 9.91453 8.58757 9.67763C8.81176 9.44636 8.81526 9.06407 8.59245 8.83714ZM9.5086 8.5616C9.74968 8.33048 10.1207 8.33388 10.3463 8.56366C10.5831 8.80478 10.5851 9.19274 10.3581 9.4268C10.1254 9.6608 9.72912 9.65436 9.498 9.41329C9.25569 9.1665 9.25903 8.80108 9.5086 8.5616Z" fill="#D2B206"/>
<path d="M6.26391 0.0104348C5.47254 0.155027 5.04611 0.281324 4.49621 0.533963C2.52816 1.43811 1.21386 3.34616 1.01981 5.5809C0.909987 6.8456 1.22208 8.19758 1.814 9.02148C1.9565 9.21987 1.97051 9.26495 1.94564 9.44622C1.90571 9.73765 1.95837 9.94794 2.11263 10.1131C2.12332 10.1245 2.13311 10.1352 2.14206 10.1453C2.26646 9.92756 2.42032 9.6814 2.60459 9.42206C2.73337 9.24081 2.85145 9.08158 2.95753 8.94348L2.88132 8.9169C2.8059 8.89062 2.65651 8.87898 2.54938 8.89108C2.36021 8.91239 2.35031 8.90691 2.21187 8.70273C1.97105 8.34756 1.74538 7.80003 1.6298 7.29042C1.49342 6.68933 1.47522 5.65167 1.59038 5.04455C1.93446 3.23063 3.0657 1.76399 4.71791 0.989781C5.54318 0.603042 6.29763 0.459772 7.30727 0.4981C8.92467 0.559559 10.2527 1.18908 12.5605 2.98831C14.2771 4.32665 15.0204 4.73 16.2922 5.01307C16.884 5.14479 18.5502 5.16067 19.0685 5.03948C20.3624 4.73707 21.2432 3.94721 21.5256 2.83646C21.6494 2.34943 21.6001 2.12741 21.3682 2.12741C21.202 2.12741 21.0928 2.23399 21.0928 2.39615C21.0928 2.81602 20.7728 3.44586 20.3654 3.82799C19.7753 4.38135 19.1465 4.59206 17.9901 4.62391C16.2137 4.67283 15.0547 4.26167 13.4046 2.99739C13.1536 2.80511 12.7225 2.47395 12.4464 2.26146C10.8783 1.05439 9.72903 0.437873 8.44827 0.116519C8.14613 0.0407314 7.88956 0.017415 7.22208 0.0051421C6.75782 -0.00343671 6.32664 -0.00101804 6.26391 0.0104348Z" fill="#0C0030"/>
<path d="M5.38676 13.4882C5.53437 13.6385 5.55212 13.8495 5.41291 14.0085C5.31631 14.12 5.21125 14.2343 5.0951 14.3317C4.96193 14.4457 4.97802 14.5302 5.10073 14.6381C5.2095 14.7319 5.30977 14.834 5.40436 14.9417C5.5462 15.1089 5.53877 15.3056 5.39116 15.4617C5.24071 15.6205 5.02409 15.6382 4.85672 15.4961C4.74795 15.4023 4.64206 15.3002 4.54747 15.1925C4.44173 15.0734 4.3605 15.0418 4.24951 15.1898C4.16982 15.2958 4.06775 15.3905 3.96295 15.4767C3.78444 15.6297 3.53987 15.6302 3.39782 15.4856C3.24464 15.3295 3.25248 15.0878 3.41159 14.9038C3.53099 14.7587 3.77082 14.6625 3.77247 14.4826C3.76834 14.3195 3.54155 14.219 3.42195 14.0802C3.25226 13.8847 3.24024 13.6625 3.39352 13.5008C3.55532 13.3308 3.78581 13.3329 3.99222 13.5091C3.9978 13.5148 4.00053 13.5233 4.00894 13.5261C4.15129 13.6371 4.2334 13.8796 4.41346 13.8644C4.57948 13.8462 4.67985 13.6307 4.81591 13.5082C5.00581 13.3385 5.22517 13.3293 5.38676 13.4882V13.4882Z" fill="#0C0030"/>
</g>
<defs>
<clipPath id="clip0_51_35">
<rect width="93" height="24" fill="white" transform="translate(0.870117)"/>
</clipPath>
</defs>
</svg>
